<?xml version="1.0" standalone="no"?>
<!DOCTYPE svg PUBLIC "-//W3C//DTD SVG 20010904//EN"
 "http://www.w3.org/TR/2001/REC-SVG-20010904/DTD/svg10.dtd">
<svg version="1.0" xmlns="http://www.w3.org/2000/svg"
 width="720.000000pt" height="720.000000pt" viewBox="0 0 720.000000 720.000000"
 preserveAspectRatio="xMidYMid meet">
<metadata>
Created by potrace 1.11, written by Peter Selinger 2001-2013
</metadata>
<g transform="translate(0.000000,720.000000) scale(0.100000,-0.100000)"
fill="#000000" stroke="none">
<path d="M4315 5507 c-27 -8 -65 -21 -84 -31 -114 -60 -1607 -926 -1656 -961
-73 -52 -187 -170 -238 -248 -52 -78 -100 -185 -129 -282 l-23 -80 -3 -1011
c-2 -957 -2 -1012 15 -1033 20 -23 263 -168 298 -177 11 -3 32 -1 46 5 17 6
125 144 326 418 l301 408 753 434 c415 239 779 452 810 472 115 77 213 209
261 354 l23 70 0 625 0 625 -34 69 c-46 95 -152 199 -257 253 -160 83 -308
116 -409 90z m134 -181 c-2 -2 -357 -207 -789 -456 -432 -249 -812 -472 -845
-495 -33 -24 -90 -74 -126 -111 -116 -122 -181 -235 -236 -411 l-28 -88 -3
-918 -3 -917 -29 15 -30 16 0 937 c0 1010 0 999 53 1132 51 126 152 258 255
333 36 27 1497 874 1637 950 25 14 158 26 144 13z m276 -145 c47 -22 89 -64
104 -104 7 -19 11 -224 11 -613 0 -565 -1 -587 -21 -647 -27 -81 -67 -143
-132 -204 -38 -36 -273 -176 -882 -527 -456 -263 -844 -489 -861 -502 -18 -13
-97 -126 -185 -263 l-154 -239 -3 791 c-2 572 0 811 9 862 31 187 149 380 299
489 50 37 1592 928 1655 957 51 24 109 24 160 0z"/>
<path d="M3960 4576 c-86 -30 -183 -121 -236 -221 -15 -27 -28 -52 -30 -53 -1
-2 -19 1 -39 8 -97 32 -208 -3 -294 -95 -62 -65 -96 -132 -121 -237 -66 -275
29 -468 294 -599 55 -26 123 -54 152 -60 73 -16 88 -5 188 149 226 347 334
595 344 785 6 117 -8 187 -48 250 -48 76 -127 103 -210 73z"/>
</g>
</svg>
